<svg height="64" viewBox="0 0 64 64" width="64" xmlns="http://www.w3.org/2000/svg"><g fill="none" fill-rule="evenodd" transform="matrix(1.5978976 0 0 1.5978976 .024707 -1.5138016)"><path d="m32.778892 20.921123c0 2.523-.73275 4.940875-1.988891 6.938251l5.129244 5.151125c2.512283-3.364 4.08246-7.569001 4.08246-12.089376s-1.570177-8.725376-4.08246-12.0893762l-5.129244 5.1511252c1.256141 1.997376 1.988891 4.310126 1.988891 6.938251z" fill="#b8d3f4"/><path d="m20.013586 33.746374c-7.013457 0-12.7707723-5.781875-12.7707723-12.825251s5.7573153-12.8252513 12.7707723-12.8252513c2.616961 0 4.919887.7358751 6.908778 2.1025003l5.129245-5.1511256c-3.349711-2.5230003-7.536849-4.09987544-12.038023-4.09987544-10.9912385 0-19.99358602 8.93562594-19.99358602 20.07887704 0 11.143251 9.00234752 19.973752 19.99358602 19.973752 4.605852 0 8.79299-1.576875 12.142701-4.099875l-5.129244-5.151126c-1.988891 1.2615-4.396496 1.997375-7.013457 1.997375z" fill="#3385ff"/></g></svg>